<svg width="173" height="49" viewBox="0 0 173 49" fill="none" xmlns="http://www.w3.org/2000/svg">
<g clip-path="url(#clip0_521_29759)">
<path d="M63.9525 39.5613C62.67 39.5613 61.4684 39.335 60.3343 38.8824C59.2003 38.4299 58.2282 37.8042 57.4182 37.0321C56.6081 36.2467 55.9736 35.3149 55.5145 34.2234C55.0555 33.1318 54.8125 31.9737 54.8125 30.7357C54.8125 29.4978 55.042 28.3263 55.5145 27.2481C55.9736 26.1566 56.6216 25.2247 57.4182 24.4394C58.2282 23.654 59.2003 23.0416 60.3343 22.589C61.4684 22.1365 62.67 21.9102 63.9525 21.9102C65.5591 21.9102 67.0307 22.2563 68.3673 22.9351C69.7039 23.614 70.7839 24.5592 71.6075 25.7572L68.2458 27.8072C67.7733 27.1283 67.1657 26.5825 66.4097 26.1965C65.6536 25.7971 64.8436 25.6108 63.966 25.6108C62.4944 25.6108 61.2659 26.1033 60.2803 27.0751C59.2948 28.0468 58.7952 29.2715 58.7952 30.7491C58.7952 32.2266 59.2948 33.4513 60.2803 34.4231C61.2659 35.3948 62.4944 35.8873 63.966 35.8873C64.8571 35.8873 65.6671 35.6877 66.4232 35.3016C67.1657 34.9156 67.7733 34.3698 68.2593 33.6909L71.621 35.7409C70.7974 36.939 69.7174 37.8841 68.3808 38.563C67.0307 39.2152 65.5591 39.5613 63.9525 39.5613Z" fill="white"/>
<path d="M73.7949 39.2546V21.457H77.4536V39.2546H73.7949Z" fill="white"/>
<path d="M80.6133 39.2549V26.6621H84.272V39.2549H80.6133Z" fill="white"/>
<path d="M94.9631 26.3555C96.4347 26.3555 97.6093 26.7948 98.5138 27.66C99.4049 28.5386 99.8639 29.6967 99.8639 31.1476V39.2544H96.2052V32.359C96.2052 31.6002 95.9757 30.9879 95.5302 30.522C95.0711 30.0694 94.4771 29.8298 93.721 29.8298C92.938 29.8298 92.3035 30.0694 91.8174 30.5353C91.3314 31.0012 91.0884 31.6269 91.0884 32.3989V39.2411H87.4297V26.6483H91.0884V27.8996C92.101 26.8746 93.397 26.3555 94.9631 26.3555Z" fill="white"/>
<path d="M111.543 29.4978H119.967V30.8156C119.967 32.4663 119.589 33.9705 118.833 35.3016C118.077 36.6328 117.038 37.6844 115.701 38.4299C114.365 39.1886 112.866 39.5613 111.192 39.5613C109.923 39.5613 108.721 39.335 107.601 38.8824C106.48 38.4299 105.508 37.8042 104.711 37.0321C103.915 36.2467 103.28 35.3149 102.821 34.2234C102.362 33.1318 102.133 31.9737 102.133 30.7357C102.133 29.4978 102.362 28.3263 102.835 27.2481C103.294 26.1566 103.942 25.2247 104.738 24.4394C105.549 23.654 106.521 23.0416 107.655 22.589C108.789 22.1365 109.99 21.9102 111.273 21.9102C112.758 21.9102 114.135 22.203 115.391 22.7887C116.646 23.3744 117.672 24.1731 118.469 25.1848L115.526 27.4744C115.04 26.8754 114.432 26.4095 113.703 26.0767C112.974 25.7439 112.191 25.5708 111.34 25.5708C109.842 25.5708 108.6 26.0634 107.601 27.0484C106.602 28.0335 106.102 29.2582 106.102 30.7357C106.102 32.2133 106.602 33.438 107.601 34.4231C108.6 35.4081 109.842 35.9006 111.327 35.9006C112.407 35.9006 113.365 35.6211 114.176 35.0753C114.986 34.5296 115.539 33.8107 115.809 32.9188H111.556V29.4978H111.543Z" fill="white"/>
<path d="M135.209 33.0113C135.209 33.4506 135.182 33.8233 135.142 34.1428H125.624C125.853 34.8483 126.258 35.4074 126.839 35.8067C127.419 36.2061 128.108 36.4057 128.905 36.4057C129.593 36.4057 130.214 36.2726 130.781 36.0064C131.348 35.7401 131.794 35.4074 132.118 35.008L134.575 37.1112C133.886 37.8833 133.036 38.4823 132.037 38.9216C131.038 39.3476 129.971 39.5606 128.81 39.5606C126.785 39.5606 125.084 38.9216 123.72 37.6437C122.357 36.3658 121.682 34.7817 121.682 32.8782C121.682 31.6668 121.979 30.5619 122.573 29.5636C123.167 28.5652 123.977 27.7798 125.03 27.2074C126.069 26.635 127.23 26.3555 128.5 26.3555C130.417 26.3555 132.01 26.9811 133.292 28.2457C134.561 29.5103 135.209 31.0944 135.209 33.0113ZM128.432 29.4704C127.743 29.4704 127.149 29.6701 126.636 30.0827C126.123 30.4954 125.772 31.0412 125.583 31.7467H131.321C131.119 31.0412 130.754 30.4821 130.241 30.0827C129.742 29.6701 129.134 29.4704 128.432 29.4704Z" fill="white"/>
<path d="M145.106 26.3555C146.577 26.3555 147.752 26.7948 148.656 27.66C149.547 28.5386 150.006 29.6967 150.006 31.1476V39.2544H146.348V32.359C146.348 31.6002 146.118 30.9879 145.673 30.522C145.214 30.0694 144.62 29.8298 143.864 29.8298C143.081 29.8298 142.446 30.0694 141.96 30.5353C141.474 31.0012 141.231 31.6269 141.231 32.3989V39.2411H137.572V26.6483H141.231V27.8996C142.244 26.8746 143.54 26.3555 145.106 26.3555Z" fill="white"/>
<path d="M152.91 39.2549V26.6621H156.569V39.2549H152.91Z" fill="white"/>
<path d="M172.498 33.0113C172.498 33.4506 172.471 33.8233 172.431 34.1428H162.913C163.142 34.8483 163.547 35.4074 164.128 35.8067C164.709 36.2061 165.397 36.4057 166.194 36.4057C166.882 36.4057 167.503 36.2726 168.07 36.0064C168.637 35.7401 169.083 35.4074 169.407 35.008L171.864 37.1112C171.175 37.8833 170.325 38.4823 169.326 38.9216C168.327 39.3476 167.26 39.5606 166.099 39.5606C164.074 39.5606 162.373 38.9216 161.009 37.6437C159.646 36.3658 158.971 34.7817 158.971 32.8782C158.971 31.6668 159.268 30.5619 159.862 29.5636C160.456 28.5652 161.266 27.7798 162.319 27.2074C163.358 26.635 164.52 26.3555 165.789 26.3555C167.706 26.3555 169.299 26.9811 170.581 28.2457C171.864 29.5103 172.498 31.0944 172.498 33.0113ZM165.735 29.4704C165.046 29.4704 164.452 29.6701 163.939 30.0827C163.426 30.4954 163.075 31.0412 162.886 31.7467H168.624C168.421 31.0412 168.057 30.4821 167.544 30.0827C167.031 29.6701 166.423 29.4704 165.735 29.4704Z" fill="white"/>
<path d="M82.4343 25.0386C81.7998 25.0386 81.2597 24.8256 80.8277 24.3996C80.3957 23.9737 80.1797 23.4545 80.1797 22.8156C80.1797 22.1899 80.3957 21.6708 80.8277 21.2448C81.2597 20.8321 81.7998 20.6191 82.4343 20.6191C83.0824 20.6191 83.6359 20.8321 84.0679 21.2448C84.4999 21.6574 84.7159 22.1899 84.7159 22.8156C84.7159 23.4545 84.4999 23.9737 84.0679 24.3996C83.6359 24.8256 83.0824 25.0386 82.4343 25.0386Z" fill="white"/>
<path d="M154.731 25.0386C154.097 25.0386 153.557 24.8256 153.125 24.3996C152.693 23.9737 152.477 23.4545 152.477 22.8156C152.477 22.1899 152.693 21.6708 153.125 21.2448C153.557 20.8321 154.097 20.6191 154.731 20.6191C155.379 20.6191 155.933 20.8321 156.365 21.2448C156.797 21.6574 157.013 22.1899 157.013 22.8156C157.013 23.4545 156.797 23.9737 156.365 24.3996C155.933 24.8389 155.393 25.0386 154.731 25.0386Z" fill="white"/>
<path d="M26.2318 48.9865C12.542 49.4658 1.01236 38.883 0.512827 25.3718C0.0132977 11.8605 10.7599 0.505693 24.4497 0.0131639C30.2011 -0.18651 35.8849 1.59724 40.4482 5.04495L43.0268 6.98844L39.0846 12.0602L36.5194 10.1167C33.1442 7.57415 28.9455 6.24299 24.6927 6.40273C14.5671 6.76214 6.64218 15.1751 6.9932 25.1455C7.35773 35.1292 15.8902 42.9431 26.0023 42.597C27.5414 42.5437 29.0535 42.3041 30.5116 41.8781L33.6168 40.9863L35.4394 47.1229L32.3342 48.0148C30.3631 48.5739 28.3109 48.9067 26.2318 48.9865Z" fill="white"/>
<path d="M43.4998 22.5757L43.4728 39.8009L36.9924 39.7876L37.0059 32.6925C34.8323 35.6743 31.5246 37.8308 27.6633 38.3766C19.4144 39.5347 12.1644 34.1701 11.1924 26.1965C10.4228 19.9267 13.7305 14.0829 19.4819 11.5537C25.2602 9.01118 32.0241 10.4621 36.2228 15.1611C36.5604 15.5339 36.8574 15.9598 37.3704 16.5855C33.2122 16.5855 29.3374 16.5455 25.4627 16.5722C21.4665 16.6121 18.3478 19.1945 17.5512 23.0283C16.7547 26.8221 19.2658 30.8289 23.1271 31.9471C26.8533 33.0386 31.0655 31.1883 32.4966 27.6873L24.0721 27.674L24.0856 21.2845L28.8919 21.2978V21.3111C32.3751 21.2978 34.4947 21.3244 38.248 21.3111H42.2847C42.9327 21.3244 43.4998 21.8835 43.4998 22.5757Z" fill="white"/>
</g>
<defs>
<clipPath id="clip0_521_29759">
<rect width="172" height="49" fill="white" transform="translate(0.5)"/>
</clipPath>
</defs>
</svg>
