<svg width="172" height="49" viewBox="0 0 172 49" fill="none" xmlns="http://www.w3.org/2000/svg">
<path d="M63.4525 39.5621C62.17 39.5621 60.9684 39.3358 59.8343 38.8832C58.7003 38.4306 57.7282 37.805 56.9182 37.0329C56.1081 36.2475 55.4736 35.3157 55.0145 34.2241C54.5555 33.1326 54.3125 31.9745 54.3125 30.7365C54.3125 29.4985 54.542 28.3271 55.0145 27.2489C55.4736 26.1573 56.1216 25.2255 56.9182 24.4401C57.7282 23.6547 58.7003 23.0424 59.8343 22.5898C60.9684 22.1372 62.17 21.9109 63.4525 21.9109C65.0591 21.9109 66.5307 22.257 67.8673 22.9359C69.2039 23.6148 70.2839 24.5599 71.1075 25.758L67.7458 27.8079C67.2733 27.129 66.6657 26.5833 65.9097 26.1972C65.1536 25.7979 64.3436 25.6115 63.466 25.6115C61.9944 25.6115 60.7659 26.1041 59.7803 27.0758C58.7948 28.0475 58.2952 29.2722 58.2952 30.7498C58.2952 32.2274 58.7948 33.4521 59.7803 34.4238C60.7659 35.3956 61.9944 35.8881 63.466 35.8881C64.3571 35.8881 65.1671 35.6884 65.9232 35.3024C66.6657 34.9163 67.2733 34.3706 67.7593 33.6917L71.121 35.7417C70.2974 36.9397 69.2174 37.8848 67.8808 38.5637C66.5307 39.216 65.0591 39.5621 63.4525 39.5621Z" fill="white"/>
<path d="M73.2949 39.2559V21.4583H76.9536V39.2559H73.2949Z" fill="white"/>
<path d="M80.1133 39.2559V26.6631H83.772V39.2559H80.1133Z" fill="white"/>
<path d="M94.4631 26.357C95.9347 26.357 97.1093 26.7963 98.0138 27.6615C98.9049 28.5401 99.3639 29.6982 99.3639 31.1492V39.2559H95.7052V32.3605C95.7052 31.6018 95.4757 30.9894 95.0302 30.5235C94.5711 30.0709 93.9771 29.8313 93.221 29.8313C92.438 29.8313 91.8035 30.0709 91.3174 30.5368C90.8314 31.0027 90.5884 31.6284 90.5884 32.4004V39.2426H86.9297V26.6498H90.5884V27.9011C91.601 26.8761 92.897 26.357 94.4631 26.357Z" fill="white"/>
<path d="M111.043 29.4985H119.467V30.8164C119.467 32.467 119.089 33.9712 118.333 35.3024C117.577 36.6335 116.538 37.6852 115.201 38.4306C113.865 39.1894 112.366 39.5621 110.692 39.5621C109.423 39.5621 108.221 39.3358 107.101 38.8832C105.98 38.4306 105.008 37.805 104.211 37.0329C103.415 36.2475 102.78 35.3157 102.321 34.2241C101.862 33.1326 101.633 31.9745 101.633 30.7365C101.633 29.4985 101.862 28.3271 102.335 27.2489C102.794 26.1573 103.442 25.2255 104.238 24.4401C105.049 23.6547 106.021 23.0424 107.155 22.5898C108.289 22.1372 109.49 21.9109 110.773 21.9109C112.258 21.9109 113.635 22.2038 114.891 22.7895C116.146 23.3752 117.172 24.1739 117.969 25.1856L115.026 27.4752C114.54 26.8761 113.932 26.4102 113.203 26.0774C112.474 25.7446 111.691 25.5716 110.84 25.5716C109.342 25.5716 108.1 26.0641 107.101 27.0492C106.102 28.0342 105.602 29.2589 105.602 30.7365C105.602 32.2141 106.102 33.4387 107.101 34.4238C108.1 35.4089 109.342 35.9014 110.827 35.9014C111.907 35.9014 112.865 35.6219 113.676 35.0761C114.486 34.5303 115.039 33.8115 115.309 32.9196H111.056V29.4985H111.043Z" fill="white"/>
<path d="M134.709 33.0128C134.709 33.4521 134.682 33.8248 134.642 34.1443H125.124C125.353 34.8498 125.758 35.4089 126.339 35.8082C126.919 36.2076 127.608 36.4072 128.405 36.4072C129.093 36.4072 129.714 36.2741 130.281 36.0079C130.848 35.7417 131.294 35.4089 131.618 35.0095L134.075 37.1128C133.386 37.8848 132.536 38.4838 131.537 38.9231C130.538 39.3491 129.471 39.5621 128.31 39.5621C126.285 39.5621 124.584 38.9231 123.22 37.6452C121.857 36.3673 121.182 34.7832 121.182 32.8797C121.182 31.6683 121.479 30.5634 122.073 29.5651C122.667 28.5667 123.477 27.7813 124.53 27.2089C125.569 26.6365 126.73 26.357 128 26.357C129.917 26.357 131.51 26.9826 132.792 28.2472C134.061 29.5118 134.709 31.0959 134.709 33.0128ZM127.932 29.4719C127.243 29.4719 126.649 29.6716 126.136 30.0842C125.623 30.4969 125.272 31.0427 125.083 31.7482H130.821C130.619 31.0427 130.254 30.4836 129.741 30.0842C129.242 29.6716 128.634 29.4719 127.932 29.4719Z" fill="white"/>
<path d="M144.606 26.357C146.077 26.357 147.252 26.7963 148.156 27.6615C149.047 28.5401 149.506 29.6982 149.506 31.1492V39.2559H145.848V32.3605C145.848 31.6018 145.618 30.9894 145.173 30.5235C144.714 30.0709 144.12 29.8313 143.364 29.8313C142.581 29.8313 141.946 30.0709 141.46 30.5368C140.974 31.0027 140.731 31.6284 140.731 32.4004V39.2426H137.072V26.6498H140.731V27.9011C141.744 26.8761 143.04 26.357 144.606 26.357Z" fill="white"/>
<path d="M152.41 39.2559V26.6631H156.069V39.2559H152.41Z" fill="white"/>
<path d="M171.998 33.0128C171.998 33.4521 171.971 33.8248 171.931 34.1443H162.413C162.642 34.8498 163.047 35.4089 163.628 35.8082C164.209 36.2076 164.897 36.4072 165.694 36.4072C166.382 36.4072 167.003 36.2741 167.57 36.0079C168.137 35.7417 168.583 35.4089 168.907 35.0095L171.364 37.1128C170.675 37.8848 169.825 38.4838 168.826 38.9231C167.827 39.3491 166.76 39.5621 165.599 39.5621C163.574 39.5621 161.873 38.9231 160.509 37.6452C159.146 36.3673 158.471 34.7832 158.471 32.8797C158.471 31.6683 158.768 30.5634 159.362 29.5651C159.956 28.5667 160.766 27.7813 161.819 27.2089C162.858 26.6365 164.02 26.357 165.289 26.357C167.206 26.357 168.799 26.9826 170.081 28.2472C171.364 29.5118 171.998 31.0959 171.998 33.0128ZM165.235 29.4719C164.546 29.4719 163.952 29.6716 163.439 30.0842C162.926 30.4969 162.575 31.0427 162.386 31.7482H168.124C167.921 31.0427 167.557 30.4836 167.044 30.0842C166.531 29.6716 165.923 29.4719 165.235 29.4719Z" fill="white"/>
<path d="M81.9343 25.0391C81.2998 25.0391 80.7597 24.8261 80.3277 24.4002C79.8957 23.9742 79.6797 23.455 79.6797 22.8161C79.6797 22.1904 79.8957 21.6713 80.3277 21.2453C80.7597 20.8327 81.2998 20.6197 81.9343 20.6197C82.5824 20.6197 83.1359 20.8327 83.5679 21.2453C83.9999 21.658 84.2159 22.1904 84.2159 22.8161C84.2159 23.455 83.9999 23.9742 83.5679 24.4002C83.1359 24.8261 82.5824 25.0391 81.9343 25.0391Z" fill="white"/>
<path d="M154.231 25.0391C153.597 25.0391 153.057 24.8261 152.625 24.4002C152.193 23.9742 151.977 23.455 151.977 22.8161C151.977 22.1904 152.193 21.6713 152.625 21.2453C153.057 20.8327 153.597 20.6197 154.231 20.6197C154.879 20.6197 155.433 20.8327 155.865 21.2453C156.297 21.658 156.513 22.1904 156.513 22.8161C156.513 23.455 156.297 23.9742 155.865 24.4002C155.433 24.8395 154.893 25.0391 154.231 25.0391Z" fill="white"/>
<path d="M25.7318 48.9867C12.042 49.4659 0.512356 38.8832 0.0128268 25.3719C-0.486702 11.8606 10.2599 0.505846 23.9497 0.0133165C29.7011 -0.186357 35.3849 1.5974 39.9482 5.0451L42.5268 6.98859L38.5846 12.0603L36.0194 10.1168C32.6442 7.57431 28.4455 6.24314 24.1927 6.40288C14.0671 6.7623 6.14218 15.1752 6.4932 25.1456C6.85773 35.1293 15.3902 42.9432 25.5023 42.5971C27.0414 42.5439 28.5535 42.3043 30.0116 41.8783L33.1168 40.9864L34.9394 47.1231L31.8342 48.0149C29.8631 48.574 27.8109 48.9068 25.7318 48.9867Z" fill="white"/>
<path d="M42.9998 22.5765L42.9728 39.8017L36.4924 39.7884L36.5059 32.6933C34.3323 35.6751 31.0246 37.8316 27.1633 38.3773C18.9144 39.5354 11.6644 34.1709 10.6924 26.1972C9.92283 19.9275 13.2305 14.0837 18.9819 11.5545C24.7602 9.01195 31.5241 10.4629 35.7228 15.1619C36.0604 15.5346 36.3574 15.9606 36.8704 16.5863C32.7122 16.5863 28.8374 16.5463 24.9627 16.5729C20.9665 16.6129 17.8478 19.1953 17.0512 23.0291C16.2547 26.8229 18.7658 30.8297 22.6271 31.9478C26.3533 33.0394 30.5655 31.1891 31.9966 27.6881L23.5721 27.6748L23.5856 21.2852L28.3919 21.2986V21.3119C31.8751 21.2986 33.9947 21.3252 37.748 21.3119H41.7847C42.4327 21.3252 42.9998 21.8843 42.9998 22.5765Z" fill="white"/>
</svg>
