<?xml version="1.0" encoding="utf-8"?>
<svg version="1.1" id="Layer_1" xmlns="http://www.w3.org/2000/svg" xmlns:xlink="http://www.w3.org/1999/xlink" x="0px" y="0px"
	 viewBox="0 0 679.9 137.7" style="enable-background:new 0 0 679.9 137.7;" xml:space="preserve">
<style type="text/css">
	.st0{fill:#FFFFFF;}
	.st1{fill:#FFFFFF;}
</style>
<g>
	<g>
		<g>
			<path class="st0" d="M238.1,98.7c-10.9,0-19.9-3.6-27.1-10.9c-7.2-7.2-10.8-16.2-10.8-27c0-10.7,3.6-19.7,10.8-27
				c7.2-7.2,16.2-10.9,27.1-10.9c6.5,0,12.5,1.5,18.1,4.5c5.5,3,9.9,7.1,13.1,12.3L255,48.1c-1.6-2.8-3.9-5-6.9-6.6
				c-3-1.6-6.3-2.3-10-2.3c-6.4,0-11.6,2-15.4,5.9s-5.8,9.2-5.8,15.7c0,6.5,1.9,11.7,5.8,15.7c3.8,4,9,5.9,15.4,5.9
				c3.7,0,7-0.8,10-2.4c3-1.6,5.3-3.8,6.8-6.5l14.3,8.3c-3.1,5.2-7.5,9.3-13,12.3C250.8,97.2,244.7,98.7,238.1,98.7z"/>
			<path class="st0" d="M314.9,45.2h15.6v52h-15.6v-4.9c-3.7,4.2-8.8,6.3-15.5,6.3c-6.9,0-12.7-2.7-17.6-8
				c-4.9-5.3-7.3-11.8-7.3-19.5s2.4-14.2,7.3-19.5c4.9-5.3,10.7-8,17.6-8c6.7,0,11.8,2.1,15.5,6.3V45.2z M293.6,80.5
				c2.3,2.3,5.3,3.4,8.9,3.4c3.7,0,6.7-1.1,8.9-3.4s3.4-5.4,3.4-9.3c0-3.9-1.1-7-3.4-9.3c-2.3-2.3-5.3-3.4-8.9-3.4
				c-3.7,0-6.7,1.1-8.9,3.4c-2.3,2.3-3.4,5.4-3.4,9.3C290.1,75.1,291.3,78.2,293.6,80.5z"/>
			<path class="st0" d="M341.9,97.2V21.3h15.6v75.9H341.9z"/>
			<path class="st0" d="M368.9,97.2V21.3h15.6v75.9H368.9z"/>
			<path class="st0" d="M468.5,56.7v6.2c0,10.9-3.4,19.6-10.1,26c-6.8,6.5-15.3,9.7-25.7,9.7c-11.3,0-20.7-3.6-28.1-10.9
				c-7.5-7.3-11.2-16.2-11.2-26.8s3.7-19.6,11.1-26.9c7.4-7.3,16.4-11,27.1-11c6.8,0,13,1.5,18.7,4.6c5.6,3.1,10,7.1,13.2,12.1
				l-14.1,8.1c-1.6-2.5-4-4.5-7.1-6.1c-3.2-1.6-6.7-2.4-10.7-2.4c-6.2,0-11.3,2-15.3,6.1C412,49.4,410,54.7,410,61
				c0,6.3,2.1,11.5,6.2,15.4c4.2,4,9.7,6,16.6,6c9.6,0,15.8-3.7,18.6-11.2H432V56.7H468.5z"/>
			<path class="st0" d="M491.3,77.5c1.8,4.9,6,7.3,12.5,7.3c4.2,0,7.6-1.3,10-4l12.5,7.2c-5.1,7.1-12.7,10.7-22.7,10.7
				c-8.7,0-15.7-2.6-20.9-7.8c-5.2-5.2-7.8-11.7-7.8-19.6c0-7.8,2.6-14.4,7.7-19.6c5.2-5.2,11.8-7.8,19.9-7.8
				c7.6,0,13.8,2.6,18.9,7.8c5,5.2,7.5,11.8,7.5,19.6c0,2.2-0.2,4.3-0.6,6.2H491.3z M491,65.8h22.4c-1.5-5.5-5.2-8.2-11-8.2
				C496.3,57.6,492.5,60.3,491,65.8z"/>
			<path class="st0" d="M568.1,43.8c5.5,0,10.2,1.9,13.9,5.7c3.7,3.8,5.6,9.1,5.6,15.8v31.9H572V67.6c0-3-0.8-5.4-2.5-7
				c-1.7-1.6-3.9-2.4-6.5-2.4c-3,0-5.3,0.9-7.1,2.7c-1.7,1.8-2.6,4.5-2.6,8v28.4h-15.6v-52h15.6v4.9
				C556.4,45.9,561.3,43.8,568.1,43.8z"/>
			<path class="st0" d="M612.7,37.9c-1.8,1.8-4,2.8-6.6,2.8c-2.6,0-4.8-0.9-6.6-2.8c-1.8-1.8-2.8-4-2.8-6.6c0-2.6,0.9-4.8,2.8-6.6
				c1.8-1.8,4-2.8,6.6-2.8c2.6,0,4.8,0.9,6.6,2.8c1.8,1.8,2.8,4,2.8,6.6C615.4,33.9,614.5,36.1,612.7,37.9z M598.3,97.2v-52h15.6v52
				H598.3z"/>
			<path class="st0" d="M639.2,77.5c1.8,4.9,6,7.3,12.5,7.3c4.2,0,7.6-1.3,10-4l12.5,7.2c-5.1,7.1-12.7,10.7-22.7,10.7
				c-8.7,0-15.7-2.6-20.9-7.8c-5.2-5.2-7.8-11.7-7.8-19.6c0-7.8,2.6-14.4,7.7-19.6c5.2-5.2,11.8-7.8,19.9-7.8
				c7.6,0,13.8,2.6,18.9,7.8c5,5.2,7.5,11.8,7.5,19.6c0,2.2-0.2,4.3-0.6,6.2H639.2z M638.9,65.8h22.4c-1.5-5.5-5.2-8.2-11-8.2
				C644.2,57.6,640.4,60.3,638.9,65.8z"/>
		</g>
	</g>
	<g>
		<g>
			<g>
				<path class="st0" d="M85.7,85.5c-14,0-25.3-11.4-25.3-25.3s11.4-25.3,25.3-25.3c6.8,0,12.9,2.7,17.5,7h16.7
					c-6.6-12.2-19.4-20.5-34.2-20.5c-21.4,0-38.8,17.4-38.8,38.8s17.4,38.8,38.8,38.8c14.6,0,27.3-8.1,33.9-19.9h-17
					C98.1,83,92.2,85.5,85.7,85.5z"/>
			</g>
			<g>
				<path class="st0" d="M145.8,60.1c0,16.1-6.3,31.2-17.6,42.5c-11.4,11.4-26.4,17.6-42.5,17.6s-31.2-6.3-42.5-17.6
					C31.9,91.3,25.6,76.2,25.6,60.1S31.9,29,43.2,17.6C54.6,6.3,69.7,0,85.7,0s31.2,6.3,42.5,17.6c6.9,6.9,11.9,15.2,14.8,24.2
					h-14.4c-7.1-16.6-23.7-28.3-42.9-28.3c-25.7,0-46.6,20.9-46.6,46.6s20.9,46.6,46.6,46.6c23.3,0,42.7-17.2,46.1-39.6H80.3
					c-3.7,0-6.7-3-6.7-6.7c0-3.7,3-6.7,6.7-6.7h65.2C145.7,55.8,145.8,57.9,145.8,60.1z"/>
			</g>
			<g>
				<path class="st0" d="M171.4,48.7v28c0,5-4,9-9,9h-3.9c-3.7,11-10,21.1-18.4,29.6c-14.5,14.5-33.7,22.4-54.1,22.4
					c-16,0-31.4-4.9-44.4-14.2l4.7-6.6c11.6,8.3,25.4,12.7,39.7,12.7c32.3,0,59.5-22.5,66.6-52.6V39.6h9.8
					C167.4,39.6,171.4,43.7,171.4,48.7z"/>
			</g>
			<g>
				<path class="st0" d="M36,119l-5.3-3.6c-1.4-0.9-1.7-2.8-0.8-4.1l0.5-0.7c0.9-1.4,2.8-1.7,4.1-0.8l5.3,3.6
					c1.4,0.9,1.7,2.8,0.8,4.1l-0.5,0.7C39.2,119.5,37.3,119.9,36,119z"/>
			</g>
		</g>
		<g>
			<path class="st0" d="M8,39.6h10.9v46.1H8c-2.3,0-4.4-1-5.8-2.6C0.8,81.7,0,79.8,0,77.8l0-30.2c0-2.1,0.8-4.1,2.2-5.5
				C3.7,40.6,5.7,39.6,8,39.6z"/>
		</g>
	</g>
</g>
</svg>
